<svg xmlns="http://www.w3.org/2000/svg" xmlns:xlink="http://www.w3.org/1999/xlink" width="252" height="248" viewBox="0 0 252 248">
  <defs>
    <ellipse id="empty-a" cx="125" cy="123" rx="125" ry="123"/>
    <ellipse id="empty-b" cx="116" cy="114" rx="116" ry="114"/>
    <polygon id="empty-d" points="21.597 .122 .322 .122 .322 12.991 21.597 12.991 21.597 .122"/>
    <polygon id="empty-f" points="109.673 165.497 109.673 .286 .022 .286 .022 165.497 109.673 165.497"/>
  </defs>
  <g fill="none" fill-rule="evenodd" transform="translate(1 1)">
    <use fill="#EEF8FA" xlink:href="#empty-a"/>
    <g transform="translate(9 9)">
      <mask id="empty-c" fill="#fff">
        <use xlink:href="#empty-b"/>
      </mask>
      <use fill="#EEF8FA" xlink:href="#empty-b"/>
      <ellipse cx="116" cy="114" stroke="#FFF" stroke-width="10" rx="121" ry="119"/>
      <g mask="url(#empty-c)">
        <g transform="translate(39.975 24.905)">
          <polyline fill="#F6BF94" points="109.762 3.159 141.983 24.132 141.606 42.606 104.427 9.741"/>
          <g transform="translate(0 .244)">
            <path fill="#F6BF94" d="M94.8529468,20.3972591 C94.014977,19.3080959 94.4421408,16.8025452 94.4421408,16.8025452 C95.3355045,12.4170089 96.5355784,8.97402475 97.6546065,6.39462012 L102.865708,8.66983415 C101.403165,11.3826878 99.5755427,16.1334722 99.5755427,16.1334722 C97.7936485,21.1694352 95.6938909,21.4926377 94.8529468,20.3972591"/>
            <path fill="#F6BF94" d="M90.5391122 16.8814447C89.7003988 15.7922815 90.1275626 13.2797841 90.1275626 13.2797841 91.0246439 8.89461345 92.2206284 5.45199488 93.343746 2.87368709L98.5518737 5.14780429C97.0882147 7.86723896 95.2635669 12.6114423 95.2635669 12.6114423 93.482788 17.6536208 91.3796844 17.9764577 90.5391122 16.8814447M100.682525 19.6674576C99.847158 18.6393519 100.203686 16.3400073 100.203686 16.3400073 100.982544 12.3255689 102.073689 9.18677536 103.106838 6.8388042L108.232061 9.07745686C106.867293 11.5402307 105.198045 15.8658064 105.198045 15.8658064 103.571179 20.4644954 101.526444 20.6951977 100.682525 19.6674576"/>
            <path fill="#F6BF94" d="M105.661494,21.0420554 C104.891558,19.9894536 105.337311,17.5266797 105.337311,17.5266797 C106.248891,13.2193847 107.430376,9.82575841 108.521893,7.28913059 L113.374609,9.39945284 C111.957793,12.0885416 110.16363,16.7716874 110.16363,16.7716874 C108.413708,21.7356246 106.434032,22.0880762 105.661494,21.0420554"/>
            <g transform="translate(92.199)">
              <mask id="empty-e" fill="#fff">
                <use xlink:href="#empty-d"/>
              </mask>
              <path fill="#F6BF94" d="M9.94012941,12.599377 C15.7877017,13.8161394 20.983561,12.1003143 21.546421,8.76079884 C22.1126269,5.42128333 17.8290915,1.73516604 11.9781732,0.512553841 C6.13320331,-0.703477314 0.934369859,1.01198215 0.372253428,4.35076643 C-0.194696015,7.68443211 4.09255709,11.3833459 9.94012941,12.599377" mask="url(#empty-e)"/>
            </g>
            <path fill="#F3BE92" d="M121.096497,99.1255876 L48.8444604,96.9713917 C48.8444604,96.9713917 58.2119523,94.9104273 57.9836855,88.0668701 C58.7811324,75.9624975 59.1086619,63.6994485 59.2354355,55.1532283 C55.8095738,54.8490377 53.1253935,52.0275968 53.1253935,48.5787628 C53.1253935,45.0867864 55.8805819,42.2397525 59.3625809,41.9966194 C60.423241,19.1808623 81.8208425,20.6948686 82.5565755,20.6528231 C85.3987582,20.4882969 104.783224,19.3384418 105.757262,41.9841886 C105.813028,41.9783388 105.868793,41.9724889 105.923815,41.9724889 C109.634824,41.9724889 112.640958,44.9284757 112.640958,48.5787628 C112.640958,52.1548304 109.747099,55.0621905 106.137583,55.1718746 C106.419385,63.7974329 106.852497,75.5972494 107.374462,84.2345074 C108.048481,91.3149822 121.096497,99.1255876 121.096497,99.1255876"/>
            <path fill="#B0A23B" d="M1.90022865,173.930369 C3.43452396,148.826967 9.2047681,131.418637 24.3926931,115.621931 C41.0390723,100.68844 49.2183868,92.3487915 49.2183868,92.3487915 C52.2836315,89.6304537 55.5622723,86.5103064 55.5622723,86.5103064 L109.462249,86.5103064 C109.462249,86.5103064 110.114705,88.0491744 115.807993,92.3487915 C115.807993,92.3487915 148.93866,105.371951 160.913375,116.576914 C176.245919,131.442767 133.64255,135.402729 135.5791,167.963188 C137.7718,204.830211 136.766162,232.895815 136.766162,232.895815 L0.00159861154,232.895815 C0.00159861154,232.895815 -0.116624289,207.014021 1.90022865,173.930369"/>
            <path fill="#938E34" d="M30.2335364,163.875627 C30.2335364,163.875627 26.0741722,187.354607 26.2325463,232.895815 L29.349467,232.895815 C29.349467,232.895815 28.189916,202.074946 30.2335364,163.875627"/>
            <path fill="#956A49" d="M104.495363,33.8156839 C104.495363,33.8156839 94.6270965,42.3619041 82.8787887,42.3619041 C82.8787887,42.3619041 76.211835,52.5610638 84.2892846,65.4398062 C84.2892846,65.4398062 100.354587,65.4515059 103.738067,66.6017266 C103.738067,66.6017266 108.153953,68.0309105 108.017885,64.0892292 C108.017885,64.0892292 107.92234,62.416181 106.705908,58.6631564 C106.705908,58.6631564 105.293181,55.7378812 105.924075,45.5431089 C105.924075,45.5431089 111.86459,36.5650989 104.495363,33.8156839"/>
            <path fill="#956A49" d="M60.6736654,33.8156839 C60.6736654,33.8156839 71.4416153,42.3619041 82.8791233,42.3619041 C82.8791233,42.3619041 81.595401,50.5732221 84.2888756,65.4398062 C84.2888756,65.4398062 64.8148128,65.4515059 61.4343071,66.6017266 C61.4343071,66.6017266 57.0184215,68.0309105 57.1544894,64.0892292 C57.1544894,64.0892292 57.2507778,62.416181 58.4660944,58.6631564 C58.4660944,58.6631564 60.1635968,58.1034018 59.2449528,45.3975946 C59.2449528,45.3975946 54.4766292,39.3627749 60.6736654,33.8156839"/>
            <polygon fill="#FFF" points="109.462 86.51 55.562 86.51 57.183 79.669 108.002 79.669"/>
            <polygon fill="#938E34" points="109.462 86.51 58.174 88.987 55.562 86.51"/>
            <path fill="#FFF" d="M75.9885127,22.9094274 C75.9885127,22.9094274 68.0248248,24.6490173 64.9261208,30.6710405 L67.8790909,32.5565104 C67.8790909,32.5565104 70.7491563,26.1758201 76.801574,23.7064652 L75.9885127,22.9094274 Z"/>
            <g transform="translate(113.39 7.678)">
              <mask id="empty-g" fill="#fff">
                <use xlink:href="#empty-f"/>
              </mask>
              <path fill="#B0A23B" d="M8.73042659,0.286348647 C8.73042659,0.286348647 109.274914,64.5195566 109.671221,74.6408405 C110.067156,84.7628557 28.5223528,120.967021 20.605508,157.949577 C12.6882914,194.932134 0.0217113754,83.9844642 0.0217113754,83.9844642 C0.0217113754,83.9844642 56.6274309,84.7628557 55.8355605,68.8012586 C55.0448054,52.8407582 1.20951693,13.5219301 1.20951693,13.5219301 L8.73042659,0.286348647 Z" mask="url(#empty-g)"/>
            </g>
          </g>
        </g>
      </g>
    </g>
  </g>
</svg>
