<?xml version="1.0" encoding="UTF-8"?>
<svg width="252px" height="248px" viewBox="0 0 252 248" version="1.1" xmlns="http://www.w3.org/2000/svg" xmlns:xlink="http://www.w3.org/1999/xlink">
    <!-- Generator: sketchtool 49.2 (51160) - http://www.bohemiancoding.com/sketch -->
    <title>F7CFAB10-1AAB-44E1-9F57-3CC9ACB77507</title>
    <desc>Created with sketchtool.</desc>
    <defs>
        <ellipse id="path-1" cx="126" cy="123" rx="125" ry="123"></ellipse>
        <ellipse id="path-3" cx="116" cy="114" rx="116" ry="114"></ellipse>
        <linearGradient x1="50%" y1="0%" x2="50%" y2="100%" id="linearGradient-5">
            <stop stop-color="#FFFFFF" offset="0%"></stop>
            <stop stop-color="#000000" offset="100%"></stop>
        </linearGradient>
        <path d="M-7.27595761e-12,45.8652255 L-3.50623251e-12,67.0625 C-1.95890966e-12,68.875 -1.95890966e-12,72.8200743 1.82352941,76.125 L6.38235294,83.375 C8.98293851,85.2050779 4.1841145,91.4798998 15.5,80.65625 L19.1470588,64.34375 C20.0588235,50.2577358 22.8556824,41.6875 25.0687042,50.2577358 C26.5228826,76.2264119 22.733551,114.96845 22.8556824,115.909356 C57,124 127.268298,135.134967 127.268298,115.134967 L127.400199,45.8652255 C132.907513,25.757002 144.127945,70.8546343 149.529412,76.125 C147.143778,72.440594 160.470588,56.1875 151.352941,31.71875 C149.183887,28.7699319 143.386391,2.65146015 105.349774,2.47847576 C83.9588586,2.38147516 75.6457783,20.4122692 75.6457783,20.4122692 L50.7928434,0.336379273 C48.5798216,1.07520048 55.8735115,-0.738710661 28.1903839,8.01720977 C0.507256354,16.7747469 2.39051949,43.2348927 -7.27595761e-12,45.8652255 Z" id="path-6"></path>
        <path d="M3.92845894,2.24326494 C2.50051316,4.39713039 1.38452851,6.9450158 0,9.13861436 L17.6322359,33 L24.0451275,24.1411729 C25.6403102,21.9293634 27.6069517,21.7803642 29.0461538,22.8928912 C22.5818047,15.1747354 14.3341314,7.71484473 7.8713903,0 C5.72947164,0 4.86595037,0.821150855 3.92845894,2.24326494" id="path-7"></path>
    </defs>
    <g id="Desktop" stroke="none" stroke-width="1" fill="none" fill-rule="evenodd">
        <g id="Services-/-myRequests-/-emptyStates" transform="translate(-721.000000, -340.000000)">
            <g id="emptyState" transform="translate(679.000000, 341.000000)">
                <g id="assets/wally/happy" transform="translate(42.000000, 0.000000)">
                    <mask id="mask-2" fill="white">
                        <use xlink:href="#path-1"></use>
                    </mask>
                    <use id="Oval-Copy" fill="#EEF8FA" fill-rule="evenodd" xlink:href="#path-1"></use>
                    <g id="Group" stroke-width="1" fill-rule="evenodd" transform="translate(10.000000, 9.000000)">
                        <mask id="mask-4" fill="white">
                            <use xlink:href="#path-3"></use>
                        </mask>
                        <g id="mask">
                            <use fill="#EEF8FA" fill-rule="evenodd" xlink:href="#path-3"></use>
                            <ellipse stroke="#FFFFFF" stroke-width="10" cx="116" cy="114" rx="121" ry="119"></ellipse>
                        </g>
                        <g id="wally" mask="url(#mask-4)">
                            <g transform="translate(39.000000, 45.000000)">
                                <g id="shirt" transform="translate(1.000000, 65.000000)">
                                    <g id="Path">
                                        <use fill="url(#linearGradient-5)" xlink:href="#path-6"></use>
                                        <use fill="#A7992C" xlink:href="#path-6"></use>
                                    </g>
                                </g>
                                <g id="head" transform="translate(45.000000, 0.000000)">
                                    <path d="M10.1092063,75.5402465 L30.6905795,82.3406293 C30.6905795,82.3406293 55.0500734,71.8231363 55.2703957,65.2432189 C54.5082436,53.6055675 54.1965282,41.8139146 54.0724949,33.5950969 C57.3348979,33.3097888 59.8955335,30.5928778 59.8955335,27.2745504 C59.8955335,23.9189385 57.2712493,21.1825747 53.9533576,20.9491408 C52.9464028,-0.987159303 32.5788238,0.470181357 31.8770563,0.43127571 C29.1744352,0.267547783 10.7212129,-0.834778856 9.79422689,20.9361723 C9.74200232,20.929688 9.68814575,20.9232037 9.63428917,20.9232037 C6.1026032,20.9232037 3.24330846,23.766558 3.24330846,27.2745504 C3.24330846,30.7128369 5.99652206,33.5059381 9.43028697,33.6145497 C9.16916417,41.9095576 8.74810364,53.2505535 8.25686636,61.55853 C7.61711548,68.365397 10.1092063,75.5402465 10.1092063,75.5402465" id="Fill-4" fill="#F5C094"></path>
                                    <path d="M27.1242948,18.6246906 C27.1242948,18.6246906 22.7472237,15.7245989 18.3685207,19.7643018 C18.3685207,19.7643018 19.0947685,16.1363503 24.2078794,15.7245989 C24.2078794,15.7245989 28.3776843,15.7245989 28.167154,17.7947034 C28.167154,17.7947034 28.0643369,18.7251968 27.1242948,18.6246906" id="Fill-6" fill="#966948"></path>
                                    <path d="M35.048556,16.7630554 C35.048556,16.7630554 39.425627,13.8629637 43.8043301,17.8961823 C43.8043301,17.8961823 43.0748182,14.2747151 37.9649713,13.8629637 C37.9649713,13.8629637 33.7951665,13.8629637 34.0056968,15.9330683 C34.0056968,15.9330683 34.1085139,16.8635617 35.048556,16.7630554" id="Fill-8" fill="#966948"></path>
                                    <path d="M10.9953918,13.0838781 C10.9953918,13.0838781 10.6543001,15.9337167 13.156183,16.2190248 C13.156183,16.2190248 11.1259532,24.1152499 13.6882207,38.4082116 C13.6882207,38.4082116 14.9383462,43.498367 11.7183756,44.6071779 C11.7183756,44.6071779 7.51103434,45.9753598 7.64485978,42.1885435 C7.64485978,42.1885435 7.73462075,40.5788224 8.89172118,36.9703238 C8.89172118,36.9703238 10.2332396,34.1577698 9.63428917,24.355168 C9.63428917,24.355168 3.97934838,15.7245989 10.9953918,13.0838781" id="Fill-10" fill="#966948"></path>
                                    <path d="M52.7042114,13.0838781 C52.7042114,13.0838781 53.1889206,16.2190248 50.2692412,16.2190248 C50.2692412,16.2190248 52.576914,24.1152499 50.0146464,38.4082116 C50.0146464,38.4082116 48.764521,43.498367 51.9844916,44.6071779 C51.9844916,44.6071779 56.1885688,45.9753598 56.0580074,42.1885435 C56.0580074,42.1885435 55.9682464,40.5788224 54.807882,36.9703238 C54.807882,36.9703238 53.1921846,36.432129 54.068578,24.2157561 C54.068578,24.2157561 58.6072188,18.4155727 52.7042114,13.0838781" id="Fill-12" fill="#966948"></path>
                                    <path d="M32.2276136,44.9931543 C25.9231299,44.9931543 23.0801553,39.9143464 22.9642821,39.6987443 L22.95449,39.1297492 C23.0605711,39.3194142 26.6852821,43.7514158 32.26515,43.7514158 C32.539329,43.7708686 38.9025654,43.3153483 40.6749364,37.2606571 L40.9997079,38.3386678 C38.9335737,45.3611369 32.2912623,44.9996386 32.2276136,44.9931543" id="Fill-14" fill="#E6A274"></path>
                                    <path d="M28.8201242,27.0655947 C28.8201242,28.5537357 27.6059032,29.7565685 26.1109751,29.7565685 C24.6095189,29.7565685 23.3985619,28.5537357 23.3985619,27.0655947 C23.3985619,25.5774537 24.6095189,24.3746208 26.1109751,24.3746208 C27.6059032,24.3746208 28.8201242,25.5774537 28.8201242,27.0655947" id="Fill-16" fill="#FEFEFE"></path>
                                    <path d="M27.0064631,27.0592725 C27.0064631,27.5472142 26.6082508,27.9524813 26.1137495,27.9524813 C25.6225122,27.9524813 25.2210359,27.5472142 25.2210359,27.0592725 C25.2210359,26.5713309 25.6225122,26.1790323 26.1137495,26.1790323 C26.6082508,26.1790323 27.0064631,26.5713309 27.0064631,27.0592725" id="Fill-18" fill="#BA7258"></path>
                                    <path d="M34.4396502,27.0655947 C34.4396502,28.5537357 35.6538713,29.7565685 37.1487993,29.7565685 C38.6469914,29.7565685 39.8612125,28.5537357 39.8612125,27.0655947 C39.8612125,25.5774537 38.6469914,24.3746208 37.1487993,24.3746208 C35.6538713,24.3746208 34.4396502,25.5774537 34.4396502,27.0655947" id="Fill-20" fill="#FEFEFE"></path>
                                    <path d="M38.0416761,27.0592725 C38.0416761,27.5472142 37.6434639,27.9524813 37.1489625,27.9524813 C36.6577253,27.9524813 36.2562489,27.5472142 36.2562489,27.0592725 C36.2562489,26.5713309 36.6577253,26.1790323 37.1489625,26.1790323 C37.6434639,26.1790323 38.0416761,26.5713309 38.0416761,27.0592725" id="Fill-22" fill="#BA7258"></path>
                                    <path d="M28.8201242,39.1357472 L35.6664378,38.5083936 L35.6794939,38.0901579 C35.6794939,38.0901579 30.8568821,37.9701989 30.4684619,37.9572303 C30.4815181,37.5519632 31.0168198,21.1824126 31.0168198,21.1824126 L30.5990233,21.169444 L28.8201242,39.1357472 Z" id="Fill-24" fill="#E6A274"></path>
                                    <path d="M38.1309475,2.59767177 C38.1309475,2.59767177 45.713301,4.26899348 48.6623567,10.0578294 L45.8503905,11.8750473 C45.8503905,11.8750473 43.1167611,5.73281842 37.3590032,3.36443721 L38.1309475,2.59767177 Z" id="Fill-26" fill="#FEFEFE"></path>
                                    <polygon id="Fill-28" fill="#9E8F1E" points="0.438359912 67.1181468 1.01609412 66.9284818 9.23983053 59.4115867 30.4870669 80.3963196 54.0746165 64.6995125 60.4949735 67.3207804 42.1478323 91.1683203 30.4609546 81.5424151 18.9095345 91.4147228"></polygon>
                                </g>
                                <g id="tie" transform="translate(69.000000, 79.000000)">
                                    <polygon id="Tie" fill="#3B68B1" points="3.98613428 6.35675676 9.39220183 6.35675676 15 99.8918919 13.0233528 107.891892 9.39376564 109.891892 2.76793161 109.891892 0 99.8918919"></polygon>
                                    <polygon id="Fill-30" fill="#2A4C82" points="3.6396656 9.03096069 9.43485445 9.03096069 9.56455027 10.7036406 3.54318456 10.7036406"></polygon>
                                    <polygon id="Fill-32" fill="#3B68B1" points="1.21150677 0.00333754678 5.62274632 0.2942384 6.60495491 1.15239592 7.5476221 0.420295436 11.8750339 0.00333754678 9.4788245 9.50448263 3.60929779 9.50448263"></polygon>
                                </g>
                                <g id="collar" transform="translate(46.000000, 58.000000)">
                                    <g id="Fill-35">
                                        <use fill="url(#linearGradient-5)" xlink:href="#path-7"></use>
                                        <use fill="#F7F9FB" xlink:href="#path-7"></use>
                                    </g>
                                    <path d="M5.44615385,1.30596379 C7.37111228,3.9824447 17.5708082,14.1851833 18.2393759,18.0252796 C19.3488109,24.4144054 16.6842291,29.2823895 17.0023641,30.7571851 C17.9664582,32.1922556 16.9959045,30.7439434 18.4880702,33 C20.850666,29.7624016 23.0259337,26.508251 25.4498956,23.5404524 C26.2072828,22.6168431 28.0288877,21.4912976 29.9538462,22.894919 C23.4554965,15.1783117 15.1791442,7.71991774 8.68886906,0.0066208557 C8.60973906,0.00331042785 8.53383885,0 8.45632375,0 C7.30167167,0 6.16962816,0.336008427 5.44615385,1.30596379" id="Fill-37" fill="#FFFFFF"></path>
                                    <path d="M54.7543603,2.75485502 C54.5229552,2.7580917 54.2642315,2.7580917 53.9781892,2.7580917 C47.5181317,10.2930799 36.4171176,15.5753397 29.9538462,23.120038 C31.3920928,22.0325139 33.3606426,22.1781645 34.9515523,24.3402659 L41.3617934,33 L59,9.88849508 C57.6179977,7.74581372 58.8682277,6.03361064 57.4428369,3.92329606 C56.727731,2.86652044 56.3340211,2.75 55.2541309,2.75 C55.1014678,2.75 54.932735,2.75161834 54.7543603,2.75485502" id="Fill-39" fill="#FFFFFF"></path>
                                    <path d="M54.7926247,2.75805292 C48.1932587,10.2633772 36.5548546,15.6588356 29.9538462,23.167381 C31.9034349,21.8016053 33.7577615,22.8968028 34.5247858,23.795509 C36.9966738,26.6832872 39.2123395,29.8496965 41.6103172,33 C43.1246565,30.8047732 42.1424711,32.2140347 43.1180867,30.8176579 C43.4383646,29.382627 40.738176,24.6458977 41.8599696,18.4290411 C42.5399441,14.6924848 56.1361492,6.62828772 58.0923077,4.00947716 C57.3630597,3.08016984 56.2346962,2.75 55.0800535,2.75 C54.9831489,2.75 54.8895293,2.75322117 54.7926247,2.75805292" id="Fill-41"></path>
                                </g>
                                <g id="right-hand" transform="translate(0.000000, 118.000000)">
                                    <path d="M21.6379629,21.2906137 C20.9186097,19.9701311 18.3859849,19.5360225 18.3859849,19.5360225 C13.8974718,18.951709 10.18003,19.0391909 7.31672221,19.3528055 L7.49068344,25.9436641 C10.6125823,25.3032301 15.9144817,26.4388451 15.9144817,26.4388451 C21.3621325,26.2787366 22.3541816,22.6193493 21.6379629,21.2906137" id="Fill-46" fill="#F5C094"></path>
                                    <path d="M0,15.8224133 L8.09744374,32.1014633 L14.08,32.4390244 C14.0768784,32.3811095 12.5956768,9.22838868 12.7814123,8.39937831 C12.7907771,8.35966524 12.7704866,8.34146341 12.7221018,8.34146341 C11.7590866,8.34146341 0,15.8224133 0,15.8224133" id="Fill-43"></path>
                                    <path d="M21.4099326,15.2282783 C20.6937139,13.9061451 18.1610891,13.4753377 18.1610891,13.4753377 C13.6631726,12.8910241 9.95199975,12.9768555 7.08869195,13.2904701 L7.25951874,19.8747263 C10.384552,19.2408946 15.4560704,20.1635818 15.4560704,20.1635818 C20.9052883,19.9968709 22.1245841,16.552062 21.4099326,15.2282783" id="Fill-48" fill="#F5C094"></path>
                                    <path d="M20.1917338,27.4724528 C19.5350694,26.1701269 17.2249896,25.7360182 17.2249896,25.7360182 C13.1314155,25.1566565 9.74152233,25.2358855 7.12896946,25.532994 L7.29509459,32.0165634 C10.1458646,31.3926354 15.2267863,32.7164192 15.2267863,32.7164192 C20.1901666,32.5777685 20.8452639,28.7698269 20.1917338,27.4724528" id="Fill-50" fill="#F5C094"></path>
                                    <path d="M19.5947804,33.476687 C18.9005027,32.2502888 16.3976551,31.854144 16.3976551,31.854144 C11.9702635,31.3110956 8.31080876,31.3985776 5.49451751,31.6973367 L5.65280656,37.83593 C8.73239048,37.2285081 13.8446565,36.9347007 13.8446565,36.9347007 C19.2108119,36.7762428 20.295327,34.708037 19.5947804,33.476687" id="Fill-52" fill="#F5C094"></path>
                                    <path d="M13.0673162,26.5085005 C12.2022118,33.3849135 8.98627984,38.4407111 5.88475486,37.8035782 C2.7847971,37.168096 0.974659984,31.0757196 1.84133169,24.2042585 C2.7080034,17.3278455 5.92393532,12.2736985 9.01919143,12.9108314 C12.1222836,13.544663 13.9355552,19.6370394 13.0673162,26.5085005" id="Fill-54" fill="#F5C094"></path>
                                    <path d="M2.98446071,0.820988231 C1.78553872,1.67269948 2.49862304,5.88834005 2.49862304,5.88834005 C2.28234692,10.6552821 2.87632265,15.6929231 3.38723581,18.675563 L10.876972,15.6252483 C10.0416446,12.3917167 9.3614719,6.96618394 9.3614719,6.96618394 C8.79727332,1.25509687 4.1833827,-0.0290724167 2.98446071,0.820988231" id="Fill-56" fill="#F5C094"></path>
                                </g>
                                <g id="left-hand" transform="translate(131.000000, 105.000000)">
                                    <path d="M0.608113344,21.1339932 C1.35743958,19.8135107 3.99559036,19.379402 3.99559036,19.379402 C8.6711249,18.7934379 12.5450926,18.8809199 15.5260724,19.1961851 L15.3448628,25.7853931 C12.0928848,25.144959 6.56844037,26.2822246 6.56844037,26.2822246 C0.895436696,26.1204655 -0.137947859,22.4627288 0.608113344,21.1339932" id="Fill-58" fill="#F5C094"></path>
                                    <path d="M0.845644865,15.0716578 C1.59170607,13.7495247 4.22985684,13.3170666 4.22985684,13.3170666 C8.9151865,12.7344037 12.7809916,12.8202351 15.7636039,13.1338497 L15.5840268,19.7181058 C12.3304163,19.0842742 7.04758471,20.0053108 7.04758471,20.0053108 C1.371316,19.8402505 0.101216181,16.393791 0.845644865,15.0716578" id="Fill-60" fill="#F5C094"></path>
                                    <path d="M2.11460192,27.3156673 C2.7986274,26.0116908 5.20496047,25.5792327 5.20496047,25.5792327 C9.46910021,24.999871 12.9986064,25.0774494 15.7216481,25.3745579 L15.5486011,31.8581273 C12.579049,31.2341993 7.28642225,32.5596337 7.28642225,32.5596337 C2.11623444,32.4193324 1.43384148,28.6113908 2.11460192,27.3156673" id="Fill-62" fill="#F5C094"></path>
                                    <path d="M2.73642842,33.3200665 C3.45963436,32.0920178 6.06676727,31.695873 6.06676727,31.695873 C10.6786336,31.1528245 14.488933,31.2419571 17.4242023,31.5407163 L17.2593178,37.6793096 C14.0514179,37.0718876 8.72614079,36.7764296 8.72614079,36.7764296 C3.13639559,36.6196223 2.00669241,34.5514165 2.73642842,33.3200665" id="Fill-64" fill="#F5C094"></path>
                                    <path d="M9.53587024,26.3518801 C10.4370208,33.228293 13.7869498,38.2840906 17.0160725,37.6469578 C20.2468277,37.0098249 22.1323872,30.9174485 21.2296042,24.047638 C20.3268211,17.1712251 16.976892,12.1154275 13.7510344,12.7542109 C10.5202792,13.3880426 8.62982217,19.480419 9.53587024,26.3518801" id="Fill-66" fill="#F5C094"></path>
                                    <path d="M20.0388448,0.662717185 C21.2877218,1.51442844 20.5449257,5.73006901 20.5449257,5.73006901 C20.7702133,10.4986617 20.1514886,15.5363026 19.6192874,18.5189426 L11.8174789,15.4686279 C12.685979,12.2350962 13.3961248,6.8079129 13.3961248,6.8079129 C13.9821991,1.09847643 18.7899677,-0.18569286 20.0388448,0.662717185" id="Fill-68" fill="#F5C094"></path>
                                </g>
                            </g>
                        </g>
                    </g>
                </g>
            </g>
        </g>
    </g>
</svg>